<?xml version="1.0" encoding="UTF-8" ?>
<svg xmlns="http://www.w3.org/2000/svg" version="1.1" viewBox="0 1 150 192">

  <defs>
    <linearGradient id="fgGrad" x1="0" x2="0.1" y1="0" y2="1">
        <stop offset="0%" stop-color="#08A418"/>
        <stop offset="100%" stop-color="#089515"/>
    </linearGradient>

    <!-- linearGradient id="skewGrad" x1="0" x2="0.1" y1="-0.05" y2="1">
        <stop offset="0%" stop-color="#06890F"/>
        <stop offset="100%" stop-color="#079112"/>
    </linearGradient -->


    <linearGradient id="revGrad" x1="0" x2="0.1" y1="0" y2="1">
        <stop offset="0%" stop-color="#09BB1A"/>
        <stop offset="100%" stop-color="#078F12"/>
    </linearGradient>

    <!-- linearGradient id="topLineGrad" x1="0" x2="0.1" y1="0" y2="1">
        <stop offset="0%" stop-color="#078F12"/>
        <stop offset="100%" stop-color="#09BB1A"/>
    </linearGradient -->

    <linearGradient id="botLineGrad" x1="0" x2="0" y1="0" y2="1">
        <stop offset="0%" stop-color="#068812"/>
        <stop offset="100%" stop-color="#09BB1A" />
    </linearGradient>


    <linearGradient id="shadGrad" x1="0" x2="0.5" y1="0" y2="1">
        <stop offset="0%" stop-color="#058A13"/>
        <stop offset="100%" stop-color="#09B915"/>
    </linearGradient>

    <linearGradient id="btnGrad" x1="0" x2="0.5" y1="0" y2="1">
        <stop offset="0%" stop-color="#DA240B"/>
        <stop offset="100%" stop-color="#E22D0D"/>
    </linearGradient>

    <!-- linearGradient id="shadGrad" x1="0" x2="0.1" y1="0" y2="1">
        <stop offset="0%" stop-color="#069315"/>
        <stop offset="100%" stop-color="#09B915"/>
    </linearGradient -->

    <line id="conLine" x1="126" y1="0" x2="155" y2="0" stroke-width="1" />

 	
  </defs>

  <g xtransform="translate(10 25)">

  <path fill="url(#fgGrad)" d="M 15,1 
	h 79 a 4 4 0 0 1 4 4 
	v 181 a 4 4 0 0 1 -4 4 
        h -79 a 4 4 0 0 1 -4 -4 
        v -181 a 4 4 0 0 1 4 -4 z"/>

  <path fill="#06890F" d="M 11,112 
	h 87 v 62 h -87 z"/>

  <path fill="url(#revGrad)" d="M 11,112 
	h 87 v -17 h -87 z"/>

  <path fill="url(#botLineGrad)" d="M 11,10 
	h 87 v 3 h -87 z"/>

  <path fill="url(#botLineGrad)" d="M 11,177 
	h 87 v 3 h -87 z"/>

  <circle fill="url(#shadGrad)" cx="55" cy="51" r="28" /> 
  <circle fill="url(#btnGrad)" xfill="#E22D0D"        cx="55" cy="51" r="26" />

  <g id="chip" transform="
		translate(-20 30)
		rotate(-20 112 152)">

    <path fill="#EADA2E"
	d=" M 124 38 
        h 32 a 4 4 0 0 1 4 4 
	v 111 a 4 4 0 0 1 -4 4 
        h -31 a 4 4 0 0 1 -4 -4 
        v -111 a 4 4 0 0 1 4 -4 z 

	M 132 121 a 2 2 0 0 0 -2 2
        v 26 a 2 2 0 0 0 2 2 
	h 1 a 2 2 0 0 0 2 -2 
	v -26 a 2 2 0 0 0 -2 -2 z

	M 149 121 a 2 2 0 0 0 -2 2
        v 26 a 2 2 0 0 0 2 2 
	h 1 a 2 2 0 0 0 2 -2 
	v -26 a 2 2 0 0 0 -2 -2 z " />

    <path id="contour" stroke="#E4D228" stroke-width="2" fill="none" d="
	M 126 40 
        h 29 a 3 3 0 0 1 3 3 
	v 109 a 3 3 0 0 1 -3 3 
        h -29 a 3 3 0 0 1 -3 -3 
        v -109 a 3 3 0 0 1 3 -3 z 
	  " />
  </g>
  </g>
</svg>